<svg width="18" height="16" fill="none" xmlns="http://www.w3.org/2000/svg"><path d="M13.852 15.875a.562.562 0 0 1-.33-.105L9 12.492 4.48 15.77a.562.562 0 0 1-.863-.636l1.763-5.223L.81 6.777a.562.562 0 0 1 .316-1.027h5.639L8.465.514a.563.563 0 0 1 1.07 0l1.702 5.238h5.638a.563.563 0 0 1 .319 1.026l-4.572 3.133 1.762 5.222a.564.564 0 0 1-.532.742Z" fill="url('#paint0_linear_130_836')"/><defs><linearGradient id="paint0_linear_130_836" x1="2.625" y1="1.25" x2="13.876" y2="16.25" gradientUnits="userSpaceOnUse"><stop stop-color="#F84119"/><stop offset="1" stop-color="#F89F19" stop-opacity=".68"/></linearGradient></defs></svg>