<svg xmlns="http://www.w3.org/2000/svg" width="40" height="40">
  <path d="M881.677 723.568c-7.895 7.883-19.68 9.493-29.165 4.834l-.164-.09-348.435-174.038-332.655 158.762c-9.576 4.48-21.125 2.792-28.894-4.977-8.037-8.037-9.566-20.115-4.589-29.69l.093-.162 351.634-664.7c1.076-2.078 2.6-4.18 4.481-6.062 9.926-9.926 26.018-9.926 35.944 0 1.952 1.952 3.52 4.142 4.704 6.477l-.091-.163 351.706 680.155c4.931 9.654 3.417 21.551-4.45 29.539l-.007.008-.108.108zM218.738 634.07l274.751-130.978c7.112-3.329 15.224-3.259 22.121.127l.164.088 289.668 144.816L511.605 80.327 218.739 634.07z"/>
  <path d="m525.841 365.193-.091.091c-5.032 5.032-11.67 7.483-18.265 7.35h-.012c-6.366-.096-12.711-2.577-17.576-7.441-5.061-5.061-7.541-11.725-7.441-18.358v-.009l3.917-250.13c.079-6.409 2.566-12.801 7.462-17.697 9.953-9.953 26.09-9.953 36.042 0 5.056 5.056 7.544 11.71 7.462 18.337v.008l-3.917 250.202c-.114 6.341-2.593 12.658-7.44 17.505-.05.05-.102.1-.152.151l.008-.008zM670.894 899.17c-9.926 9.925-26.018 9.925-35.943-.001-5.553-5.553-8-13.037-7.339-20.291l.005-.052 15.491-164.225c.549-5.589 2.99-11.086 7.315-15.41 9.926-9.926 26.018-9.926 35.944 0 5.506 5.506 7.958 12.91 7.355 20.106l-.004.048-15.491 164.225c-.514 5.658-2.961 11.228-7.332 15.599zM525.2 1016.56c-9.926 9.922-26.016 9.92-35.939-.003-4.971-4.971-7.452-11.488-7.444-18.003l-.036-328.415c0-6.513 2.484-13.025 7.453-17.994 9.938-9.938 26.051-9.938 35.989 0 4.969 4.969 7.453 11.482 7.453 17.994l-.036 328.414c.01 6.516-2.47 13.035-7.44 18.007zM380.647 904.388c-9.926 9.925-26.018 9.925-35.943-.001-4.372-4.372-6.818-9.94-7.339-15.652l.005.052-15.491-164.225c-.607-7.245 1.845-14.648 7.35-20.154 9.926-9.926 26.018-9.926 35.944 0 4.325 4.325 6.765 9.82 7.321 15.466l-.007-.057 15.491 164.225c.666 7.306-1.779 14.79-7.332 20.343z"/>
</svg>
